<?xml version="1.0" encoding="UTF-8" standalone="no"?>
<!DOCTYPE svg PUBLIC "-//W3C//DTD SVG 1.1//EN" "http://www.w3.org/Graphics/SVG/1.1/DTD/svg11.dtd">
<!-- Created with Vectornator (http://vectornator.io/) -->
<svg height="100%" stroke-miterlimit="10" style="fill-rule:nonzero;clip-rule:evenodd;stroke-linecap:round;stroke-linejoin:round;" version="1.1" viewBox="0 0 400 400" width="100%" xml:space="preserve" xmlns="http://www.w3.org/2000/svg" xmlns:xlink="http://www.w3.org/1999/xlink">
<defs>
<clipPath id="TextBounds">
<rect height="1" width="0" x="131.08" y="275.891"/>
</clipPath>
<clipPath id="TextBounds_2">
<rect height="32.5367" width="247.176" x="45.3158" y="13.7335"/>
</clipPath>
</defs>
<g id="">
<g fill="#ff0000" opacity="1" stroke="none"/>
<g opacity="1"><?xml version="1.0" encoding="UTF-8" standalone="no"?>
<!DOCTYPE svg PUBLIC "-//W3C//DTD SVG 1.1//EN" "http://www.w3.org/Graphics/SVG/1.1/DTD/svg11.dtd">
<!-- Created with Vectornator (http://vectornator.io/) -->
<svg height="100%" stroke-miterlimit="10" style="fill-rule:nonzero;clip-rule:evenodd;stroke-linecap:round;stroke-linejoin:round;" version="1.1" viewBox="0 0 400 400" width="100%" xml:space="preserve" xmlns="http://www.w3.org/2000/svg" xmlns:xlink="http://www.w3.org/1999/xlink">
<defs>
<clipPath id="TextBounds">
<rect height="1" width="0" x="131.08" y="275.891"/>
</clipPath>
<clipPath id="TextBounds_2">
<rect height="32.5367" width="247.176" x="45.3158" y="13.7335"/>
</clipPath>
</defs>
<g id="">
<g fill="#ff0000" opacity="1" stroke="none"/>
<g opacity="1">
<g fill="#ee4d00" opacity="1" stroke="none">
<path clip-path="url(#TextBounds_2)" d="M48.9316 38.5612L48.9316 18.9294L55.6943 18.9294C57.2209 18.9294 58.3859 19.0231 59.1894 19.2106C60.3143 19.4695 61.274 19.9382 62.0686 20.6167C63.1042 21.4916 63.8786 22.6098 64.392 23.9712C64.9053 25.3327 65.162 26.8883 65.162 28.6381C65.162 30.129 64.9879 31.4503 64.6397 32.602C64.2915 33.7537 63.8452 34.7067 63.3006 35.4611C62.756 36.2154 62.1601 36.8091 61.5128 37.2421C60.8656 37.6751 60.0844 38.0032 59.1693 38.2264C58.2543 38.4496 57.203 38.5612 56.0157 38.5612L48.9316 38.5612ZM51.5295 36.2445L55.721 36.2445C57.0156 36.2445 58.0311 36.1239 58.7676 35.8829C59.5041 35.6418 60.0911 35.3026 60.5286 34.8651C61.1446 34.2491 61.6244 33.4211 61.9681 32.381C62.3118 31.341 62.4837 30.0799 62.4837 28.598C62.4837 26.5446 62.1467 24.9667 61.4727 23.8641C60.7986 22.7615 59.9795 22.0228 59.0153 21.6478C58.319 21.38 57.1986 21.2461 55.6541 21.2461L51.5295 21.2461L51.5295 36.2445Z"/>
<path clip-path="url(#TextBounds_2)" d="M66.9218 31.4503C66.9218 28.8167 67.6539 26.866 69.118 25.5983C70.3411 24.5448 71.832 24.0181 73.5907 24.0181C75.5459 24.0181 77.1439 24.6587 78.3848 25.9398C79.6258 27.2209 80.2462 28.9908 80.2462 31.2495C80.2462 33.0796 79.9717 34.5192 79.4227 35.5682C78.8736 36.6172 78.0746 37.4318 77.0256 38.0121C75.9766 38.5924 74.8317 38.8826 73.5907 38.8826C71.5999 38.8826 69.9907 38.2442 68.7631 36.9676C67.5356 35.6909 66.9218 33.8519 66.9218 31.4503ZM69.3992 31.4503C69.3992 33.2716 69.7965 34.6353 70.591 35.5414C71.3856 36.4476 72.3855 36.9006 73.5907 36.9006C74.787 36.9006 75.7824 36.4453 76.577 35.5347C77.3716 34.6241 77.7688 33.2359 77.7688 31.37C77.7688 29.6112 77.3693 28.2788 76.5703 27.3726C75.7713 26.4665 74.7781 26.0134 73.5907 26.0134C72.3855 26.0134 71.3856 26.4643 70.591 27.366C69.7965 28.2676 69.3992 29.6291 69.3992 31.4503Z"/>
<path clip-path="url(#TextBounds_2)" d="M85.0861 38.5612L80.7339 24.3395L83.2247 24.3395L85.4878 32.5484L86.3315 35.6017C86.3672 35.4499 86.6127 34.4723 87.068 32.6689L89.3311 24.3395L91.8086 24.3395L93.9378 32.5886L94.6475 35.3071L95.4644 32.5618L97.9016 24.3395L100.245 24.3395L95.7992 38.5612L93.295 38.5612L91.0319 30.0442L90.4828 27.6204L87.6037 38.5612L85.0861 38.5612Z"/>
<path clip-path="url(#TextBounds_2)" d="M101.657 38.5612L101.657 24.3395L103.826 24.3395L103.826 26.3616C104.871 24.7993 106.379 24.0181 108.352 24.0181C109.21 24.0181 109.997 24.1721 110.716 24.4801C111.435 24.7881 111.973 25.1921 112.33 25.692C112.687 26.192 112.937 26.7857 113.08 27.4731C113.169 27.9195 113.214 28.7006 113.214 29.8166L113.214 38.5612L110.803 38.5612L110.803 29.9103C110.803 28.9283 110.709 28.194 110.522 27.7074C110.334 27.2209 110.002 26.8325 109.524 26.5424C109.047 26.2522 108.486 26.1072 107.844 26.1072C106.817 26.1072 105.931 26.433 105.185 27.0847C104.44 27.7364 104.067 28.9729 104.067 30.7942L104.067 38.5612L101.657 38.5612Z"/>
<path clip-path="url(#TextBounds_2)" d="M116.246 38.5612L116.246 18.9294L118.656 18.9294L118.656 38.5612L116.246 38.5612Z"/>
<path clip-path="url(#TextBounds_2)" d="M120.885 31.4503C120.885 28.8167 121.617 26.866 123.081 25.5983C124.304 24.5448 125.795 24.0181 127.553 24.0181C129.509 24.0181 131.107 24.6587 132.348 25.9398C133.588 27.2209 134.209 28.9908 134.209 31.2495C134.209 33.0796 133.934 34.5192 133.385 35.5682C132.836 36.6172 132.037 37.4318 130.988 38.0121C129.939 38.5924 128.794 38.8826 127.553 38.8826C125.563 38.8826 123.953 38.2442 122.726 36.9676C121.498 35.6909 120.885 33.8519 120.885 31.4503ZM123.362 31.4503C123.362 33.2716 123.759 34.6353 124.554 35.5414C125.348 36.4476 126.348 36.9006 127.553 36.9006C128.75 36.9006 129.745 36.4453 130.54 35.5347C131.334 34.6241 131.732 33.2359 131.732 31.37C131.732 29.6112 131.332 28.2788 130.533 27.3726C129.734 26.4665 128.741 26.0134 127.553 26.0134C126.348 26.0134 125.348 26.4643 124.554 27.366C123.759 28.2676 123.362 29.6291 123.362 31.4503Z"/>
<path clip-path="url(#TextBounds_2)" d="M145.704 36.8069C144.812 37.5657 143.952 38.1014 143.126 38.4139C142.301 38.7263 141.415 38.8826 140.468 38.8826C138.906 38.8826 137.705 38.5009 136.866 37.7376C136.027 36.9743 135.607 35.9989 135.607 34.8116C135.607 34.1152 135.766 33.4791 136.083 32.9033C136.4 32.3275 136.815 31.8655 137.328 31.5173C137.841 31.1691 138.419 30.9057 139.062 30.7272C139.535 30.6022 140.25 30.4817 141.205 30.3656C143.151 30.1335 144.584 29.8568 145.503 29.5354C145.512 29.205 145.517 28.9952 145.517 28.906C145.517 27.9239 145.289 27.232 144.834 26.8303C144.218 26.2857 143.303 26.0134 142.089 26.0134C140.955 26.0134 140.118 26.2121 139.578 26.6093C139.038 27.0066 138.638 27.7097 138.379 28.7185L136.022 28.3971C136.237 27.3883 136.589 26.5736 137.08 25.9532C137.571 25.3327 138.281 24.8551 139.209 24.5203C140.138 24.1855 141.214 24.0181 142.437 24.0181C143.651 24.0181 144.637 24.1609 145.396 24.4466C146.155 24.7323 146.713 25.0916 147.07 25.5246C147.427 25.9576 147.677 26.5044 147.82 27.1651C147.901 27.5758 147.941 28.3167 147.941 29.3881L147.941 32.602C147.941 34.8428 147.992 36.2601 148.095 36.8538C148.197 37.4474 148.4 38.0166 148.704 38.5612L146.186 38.5612C145.936 38.0612 145.776 37.4765 145.704 36.8069ZM145.503 31.4235C144.629 31.7807 143.316 32.0842 141.566 32.3342C140.575 32.477 139.875 32.6377 139.464 32.8163C139.053 32.9948 138.736 33.2559 138.513 33.5997C138.29 33.9434 138.178 34.325 138.178 34.7446C138.178 35.3874 138.422 35.9231 138.908 36.3516C139.395 36.7801 140.107 36.9944 141.044 36.9944C141.973 36.9944 142.798 36.7913 143.522 36.3851C144.245 35.9789 144.776 35.4231 145.115 34.7178C145.374 34.1732 145.503 33.3698 145.503 32.3074L145.503 31.4235Z"/>
<path clip-path="url(#TextBounds_2)" d="M160.293 38.5612L160.293 36.7667C159.391 38.1773 158.066 38.8826 156.316 38.8826C155.182 38.8826 154.14 38.5701 153.189 37.9452C152.238 37.3202 151.502 36.4476 150.979 35.3271C150.457 34.2067 150.196 32.9189 150.196 31.4637C150.196 30.0442 150.433 28.7564 150.906 27.6003C151.379 26.4442 152.089 25.5581 153.035 24.9421C153.981 24.3261 155.039 24.0181 156.209 24.0181C157.066 24.0181 157.829 24.1989 158.499 24.5605C159.168 24.922 159.713 25.393 160.132 25.9732L160.132 18.9294L162.529 18.9294L162.529 38.5612L160.293 38.5612ZM152.673 31.4637C152.673 33.285 153.057 34.6464 153.825 35.5481C154.593 36.4498 155.499 36.9006 156.543 36.9006C157.597 36.9006 158.492 36.4699 159.228 35.6084C159.965 34.7468 160.333 33.4323 160.333 31.6646C160.333 29.7184 159.958 28.29 159.208 27.3793C158.458 26.4687 157.534 26.0134 156.436 26.0134C155.365 26.0134 154.47 26.4509 153.751 27.3258C153.033 28.2007 152.673 29.58 152.673 31.4637Z"/>
<path clip-path="url(#TextBounds_2)" d="M173.08 38.5612L173.08 18.9294L187.274 18.9294L187.274 21.2461L175.677 21.2461L175.677 27.2588L186.538 27.2588L186.538 29.5621L175.677 29.5621L175.677 36.2445L187.73 36.2445L187.73 38.5612L173.08 38.5612Z"/>
<path clip-path="url(#TextBounds_2)" d="M188.793 38.5612L193.989 31.1691L189.182 24.3395L192.195 24.3395L194.377 27.674C194.788 28.3078 195.118 28.839 195.368 29.2675C195.761 28.6783 196.123 28.156 196.453 27.7007L198.85 24.3395L201.729 24.3395L196.815 31.0352L202.104 38.5612L199.145 38.5612L196.225 34.142L195.449 32.9502L191.713 38.5612L188.793 38.5612Z"/>
<path clip-path="url(#TextBounds_2)" d="M208.765 36.4051L209.114 38.5344C208.435 38.6772 207.828 38.7486 207.292 38.7486C206.417 38.7486 205.739 38.6103 205.257 38.3335C204.775 38.0568 204.435 37.693 204.239 37.2421C204.043 36.7913 203.944 35.8427 203.944 34.3964L203.944 26.2143L202.177 26.2143L202.177 24.3395L203.944 24.3395L203.944 20.8176L206.341 19.3713L206.341 24.3395L208.765 24.3395L208.765 26.2143L206.341 26.2143L206.341 34.5304C206.341 35.2178 206.384 35.6597 206.469 35.8561C206.554 36.0525 206.692 36.2087 206.884 36.3248C207.076 36.4409 207.35 36.4989 207.707 36.4989C207.975 36.4989 208.328 36.4676 208.765 36.4051Z"/>
<path clip-path="url(#TextBounds_2)" d="M220.247 33.9813L222.738 34.2893C222.345 35.7445 221.618 36.8738 220.555 37.6773C219.493 38.4808 218.136 38.8826 216.484 38.8826C214.404 38.8826 212.755 38.242 211.536 36.9609C210.318 35.6798 209.708 33.8831 209.708 31.5709C209.708 29.1783 210.324 27.3213 211.556 26C212.788 24.6787 214.386 24.0181 216.35 24.0181C218.252 24.0181 219.805 24.6654 221.011 25.9599C222.216 27.2544 222.818 29.0756 222.818 31.4235C222.818 31.5664 222.814 31.7807 222.805 32.0663L212.199 32.0663C212.288 33.6287 212.73 34.825 213.525 35.6552C214.319 36.4855 215.31 36.9006 216.498 36.9006C217.382 36.9006 218.136 36.6685 218.761 36.2043C219.386 35.74 219.881 34.9991 220.247 33.9813ZM212.333 30.0844L220.274 30.0844C220.167 28.8881 219.863 27.9909 219.363 27.3927C218.596 26.4643 217.6 26 216.377 26C215.27 26 214.339 26.3705 213.585 27.1115C212.831 27.8525 212.413 28.8435 212.333 30.0844Z"/>
<path clip-path="url(#TextBounds_2)" d="M225.154 38.5612L225.154 24.3395L227.323 24.3395L227.323 26.3616C228.368 24.7993 229.877 24.0181 231.85 24.0181C232.707 24.0181 233.495 24.1721 234.213 24.4801C234.932 24.7881 235.47 25.1921 235.827 25.692C236.184 26.192 236.434 26.7857 236.577 27.4731C236.666 27.9195 236.711 28.7006 236.711 29.8166L236.711 38.5612L234.3 38.5612L234.3 29.9103C234.3 28.9283 234.207 28.194 234.019 27.7074C233.832 27.2209 233.499 26.8325 233.022 26.5424C232.544 26.2522 231.984 26.1072 231.341 26.1072C230.314 26.1072 229.428 26.433 228.683 27.0847C227.937 27.7364 227.565 28.9729 227.565 30.7942L227.565 38.5612L225.154 38.5612Z"/>
<path clip-path="url(#TextBounds_2)" d="M238.832 34.3161L241.216 33.9411C241.35 34.8964 241.723 35.6284 242.334 36.1373C242.946 36.6462 243.8 36.9006 244.899 36.9006C246.006 36.9006 246.827 36.6752 247.363 36.2244C247.898 35.7735 248.166 35.2446 248.166 34.6375C248.166 34.0929 247.929 33.6644 247.456 33.3519C247.126 33.1376 246.305 32.8654 244.992 32.535C243.225 32.0887 241.999 31.7025 241.316 31.3767C240.633 31.0508 240.116 30.6 239.763 30.0241C239.41 29.4483 239.234 28.8122 239.234 28.1159C239.234 27.482 239.379 26.895 239.669 26.3549C239.959 25.8148 240.354 25.3662 240.854 25.0091C241.229 24.7323 241.74 24.498 242.388 24.306C243.035 24.1141 243.729 24.0181 244.47 24.0181C245.586 24.0181 246.566 24.1788 247.409 24.5002C248.253 24.8216 248.876 25.2568 249.278 25.8059C249.679 26.3549 249.956 27.0892 250.108 28.0087L247.751 28.3301C247.644 27.5981 247.334 27.0267 246.82 26.616C246.307 26.2054 245.582 26 244.644 26C243.537 26 242.747 26.183 242.274 26.5491C241.801 26.9151 241.564 27.3436 241.564 27.8347C241.564 28.1471 241.662 28.4283 241.859 28.6783C242.055 28.9372 242.363 29.1515 242.783 29.3211C243.024 29.4104 243.733 29.6157 244.912 29.9371C246.617 30.3924 247.807 30.7651 248.481 31.0553C249.155 31.3454 249.684 31.7673 250.068 32.3208C250.452 32.8743 250.643 33.5617 250.643 34.383C250.643 35.1865 250.409 35.9431 249.94 36.6529C249.472 37.3626 248.795 37.9117 247.912 38.3C247.028 38.6884 246.028 38.8826 244.912 38.8826C243.064 38.8826 241.656 38.4987 240.687 37.7309C239.718 36.9631 239.1 35.8249 238.832 34.3161Z"/>
<path clip-path="url(#TextBounds_2)" d="M252.912 21.7014L252.912 18.9294L255.323 18.9294L255.323 21.7014L252.912 21.7014ZM252.912 38.5612L252.912 24.3395L255.323 24.3395L255.323 38.5612L252.912 38.5612Z"/>
<path clip-path="url(#TextBounds_2)" d="M257.484 31.4503C257.484 28.8167 258.216 26.866 259.68 25.5983C260.903 24.5448 262.394 24.0181 264.153 24.0181C266.108 24.0181 267.706 24.6587 268.947 25.9398C270.188 27.2209 270.809 28.9908 270.809 31.2495C270.809 33.0796 270.534 34.5192 269.985 35.5682C269.436 36.6172 268.637 37.4318 267.588 38.0121C266.539 38.5924 265.394 38.8826 264.153 38.8826C262.162 38.8826 260.553 38.2442 259.325 36.9676C258.098 35.6909 257.484 33.8519 257.484 31.4503ZM259.962 31.4503C259.962 33.2716 260.359 34.6353 261.153 35.5414C261.948 36.4476 262.948 36.9006 264.153 36.9006C265.349 36.9006 266.345 36.4453 267.139 35.5347C267.934 34.6241 268.331 33.2359 268.331 31.37C268.331 29.6112 267.932 28.2788 267.133 27.3726C266.334 26.4665 265.34 26.0134 264.153 26.0134C262.948 26.0134 261.948 26.4643 261.153 27.366C260.359 28.2676 259.962 29.6291 259.962 31.4503Z"/>
<path clip-path="url(#TextBounds_2)" d="M273.024 38.5612L273.024 24.3395L275.193 24.3395L275.193 26.3616C276.238 24.7993 277.746 24.0181 279.719 24.0181C280.576 24.0181 281.364 24.1721 282.083 24.4801C282.802 24.7881 283.34 25.1921 283.697 25.692C284.054 26.192 284.304 26.7857 284.447 27.4731C284.536 27.9195 284.58 28.7006 284.58 29.8166L284.58 38.5612L282.17 38.5612L282.17 29.9103C282.17 28.9283 282.076 28.194 281.889 27.7074C281.701 27.2209 281.369 26.8325 280.891 26.5424C280.414 26.2522 279.853 26.1072 279.211 26.1072C278.184 26.1072 277.298 26.433 276.552 27.0847C275.807 27.7364 275.434 28.9729 275.434 30.7942L275.434 38.5612L273.024 38.5612Z"/>
</g>
<path d="M8.00214 2.05056L289.207 2.05056C292.793 2.05056 295.7 5.26446 295.7 9.22901L295.7 47.2223C295.7 51.1869 292.793 54.4008 289.207 54.4008L8.00214 54.4008C4.41612 54.4008 1.50908 51.1869 1.50908 47.2223L1.50908 9.22901C1.50908 5.26446 4.41612 2.05056 8.00214 2.05056Z" fill="none" opacity="1" stroke="#ee4d00" stroke-linecap="butt" stroke-linejoin="round" stroke-width="1.99352"/>
<g opacity="1">
<path d="M34.9867 38.0669L16.9867 38.0669C15.8817 38.0669 14.9867 37.1719 14.9867 36.0669L14.9867 34.0669L36.9867 34.0669L36.9867 36.0669C36.9867 37.1719 36.0917 38.0669 34.9867 38.0669ZM25.9867 15.0669C24.8822 15.0669 23.9867 15.9623 23.9867 17.0669C23.9867 18.1714 24.8822 19.0669 25.9867 19.0669C27.0913 19.0669 27.9867 18.1714 27.9867 17.0669C27.9867 15.9623 27.0913 15.0669 25.9867 15.0669ZM37.9867 20.0669C36.8822 20.0669 35.9867 20.9623 35.9867 22.0669C35.9867 23.1714 36.8822 24.0669 37.9867 24.0669C39.0913 24.0669 39.9867 23.1714 39.9867 22.0669C39.9867 20.9623 39.0913 20.0669 37.9867 20.0669ZM13.9867 20.0669C12.8822 20.0669 11.9867 20.9623 11.9867 22.0669C11.9867 23.1714 12.8822 24.0669 13.9867 24.0669C15.0913 24.0669 15.9867 23.1714 15.9867 22.0669C15.9867 20.9623 15.0913 20.0669 13.9867 20.0669Z" fill="#ee4d00" fill-rule="nonzero" opacity="1" stroke="none"/>
<path d="M33.9867 32.0669L17.9867 32.0669L25.9867 17.0669L33.9867 32.0669Z" fill="#ee4d00" fill-rule="nonzero" opacity="1" stroke="none"/>
<path d="M36.9867 32.0669L20.9867 32.0669L37.9867 22.0669L36.9867 32.0669Z" fill="#ee4d00" fill-rule="nonzero" opacity="1" stroke="none"/>
<path d="M14.9867 32.0669L30.9867 32.0669L13.9867 22.0669L14.9867 32.0669Z" fill="#ee4d00" fill-rule="nonzero" opacity="1" stroke="none"/>
</g>
</g>
</g>
</svg>

<g fill="#ee4d00" opacity="1" stroke="none">
<path clip-path="url(#TextBounds_2)" d="M48.9316 38.5612L48.9316 18.9294L55.6943 18.9294C57.2209 18.9294 58.3859 19.0231 59.1894 19.2106C60.3143 19.4695 61.274 19.9382 62.0686 20.6167C63.1042 21.4916 63.8786 22.6098 64.392 23.9712C64.9053 25.3327 65.162 26.8883 65.162 28.6381C65.162 30.129 64.9879 31.4503 64.6397 32.602C64.2915 33.7537 63.8452 34.7067 63.3006 35.4611C62.756 36.2154 62.1601 36.8091 61.5128 37.2421C60.8656 37.6751 60.0844 38.0032 59.1693 38.2264C58.2543 38.4496 57.203 38.5612 56.0157 38.5612L48.9316 38.5612ZM51.5295 36.2445L55.721 36.2445C57.0156 36.2445 58.0311 36.1239 58.7676 35.8829C59.5041 35.6418 60.0911 35.3026 60.5286 34.8651C61.1446 34.2491 61.6244 33.4211 61.9681 32.381C62.3118 31.341 62.4837 30.0799 62.4837 28.598C62.4837 26.5446 62.1467 24.9667 61.4727 23.8641C60.7986 22.7615 59.9795 22.0228 59.0153 21.6478C58.319 21.38 57.1986 21.2461 55.6541 21.2461L51.5295 21.2461L51.5295 36.2445Z"/>
<path clip-path="url(#TextBounds_2)" d="M66.9218 31.4503C66.9218 28.8167 67.6539 26.866 69.118 25.5983C70.3411 24.5448 71.832 24.0181 73.5907 24.0181C75.5459 24.0181 77.1439 24.6587 78.3848 25.9398C79.6258 27.2209 80.2462 28.9908 80.2462 31.2495C80.2462 33.0796 79.9717 34.5192 79.4227 35.5682C78.8736 36.6172 78.0746 37.4318 77.0256 38.0121C75.9766 38.5924 74.8317 38.8826 73.5907 38.8826C71.5999 38.8826 69.9907 38.2442 68.7631 36.9676C67.5356 35.6909 66.9218 33.8519 66.9218 31.4503ZM69.3992 31.4503C69.3992 33.2716 69.7965 34.6353 70.591 35.5414C71.3856 36.4476 72.3855 36.9006 73.5907 36.9006C74.787 36.9006 75.7824 36.4453 76.577 35.5347C77.3716 34.6241 77.7688 33.2359 77.7688 31.37C77.7688 29.6112 77.3693 28.2788 76.5703 27.3726C75.7713 26.4665 74.7781 26.0134 73.5907 26.0134C72.3855 26.0134 71.3856 26.4643 70.591 27.366C69.7965 28.2676 69.3992 29.6291 69.3992 31.4503Z"/>
<path clip-path="url(#TextBounds_2)" d="M85.0861 38.5612L80.7339 24.3395L83.2247 24.3395L85.4878 32.5484L86.3315 35.6017C86.3672 35.4499 86.6127 34.4723 87.068 32.6689L89.3311 24.3395L91.8086 24.3395L93.9378 32.5886L94.6475 35.3071L95.4644 32.5618L97.9016 24.3395L100.245 24.3395L95.7992 38.5612L93.295 38.5612L91.0319 30.0442L90.4828 27.6204L87.6037 38.5612L85.0861 38.5612Z"/>
<path clip-path="url(#TextBounds_2)" d="M101.657 38.5612L101.657 24.3395L103.826 24.3395L103.826 26.3616C104.871 24.7993 106.379 24.0181 108.352 24.0181C109.21 24.0181 109.997 24.1721 110.716 24.4801C111.435 24.7881 111.973 25.1921 112.33 25.692C112.687 26.192 112.937 26.7857 113.08 27.4731C113.169 27.9195 113.214 28.7006 113.214 29.8166L113.214 38.5612L110.803 38.5612L110.803 29.9103C110.803 28.9283 110.709 28.194 110.522 27.7074C110.334 27.2209 110.002 26.8325 109.524 26.5424C109.047 26.2522 108.486 26.1072 107.844 26.1072C106.817 26.1072 105.931 26.433 105.185 27.0847C104.44 27.7364 104.067 28.9729 104.067 30.7942L104.067 38.5612L101.657 38.5612Z"/>
<path clip-path="url(#TextBounds_2)" d="M116.246 38.5612L116.246 18.9294L118.656 18.9294L118.656 38.5612L116.246 38.5612Z"/>
<path clip-path="url(#TextBounds_2)" d="M120.885 31.4503C120.885 28.8167 121.617 26.866 123.081 25.5983C124.304 24.5448 125.795 24.0181 127.553 24.0181C129.509 24.0181 131.107 24.6587 132.348 25.9398C133.588 27.2209 134.209 28.9908 134.209 31.2495C134.209 33.0796 133.934 34.5192 133.385 35.5682C132.836 36.6172 132.037 37.4318 130.988 38.0121C129.939 38.5924 128.794 38.8826 127.553 38.8826C125.563 38.8826 123.953 38.2442 122.726 36.9676C121.498 35.6909 120.885 33.8519 120.885 31.4503ZM123.362 31.4503C123.362 33.2716 123.759 34.6353 124.554 35.5414C125.348 36.4476 126.348 36.9006 127.553 36.9006C128.75 36.9006 129.745 36.4453 130.54 35.5347C131.334 34.6241 131.732 33.2359 131.732 31.37C131.732 29.6112 131.332 28.2788 130.533 27.3726C129.734 26.4665 128.741 26.0134 127.553 26.0134C126.348 26.0134 125.348 26.4643 124.554 27.366C123.759 28.2676 123.362 29.6291 123.362 31.4503Z"/>
<path clip-path="url(#TextBounds_2)" d="M145.704 36.8069C144.812 37.5657 143.952 38.1014 143.126 38.4139C142.301 38.7263 141.415 38.8826 140.468 38.8826C138.906 38.8826 137.705 38.5009 136.866 37.7376C136.027 36.9743 135.607 35.9989 135.607 34.8116C135.607 34.1152 135.766 33.4791 136.083 32.9033C136.4 32.3275 136.815 31.8655 137.328 31.5173C137.841 31.1691 138.419 30.9057 139.062 30.7272C139.535 30.6022 140.25 30.4817 141.205 30.3656C143.151 30.1335 144.584 29.8568 145.503 29.5354C145.512 29.205 145.517 28.9952 145.517 28.906C145.517 27.9239 145.289 27.232 144.834 26.8303C144.218 26.2857 143.303 26.0134 142.089 26.0134C140.955 26.0134 140.118 26.2121 139.578 26.6093C139.038 27.0066 138.638 27.7097 138.379 28.7185L136.022 28.3971C136.237 27.3883 136.589 26.5736 137.08 25.9532C137.571 25.3327 138.281 24.8551 139.209 24.5203C140.138 24.1855 141.214 24.0181 142.437 24.0181C143.651 24.0181 144.637 24.1609 145.396 24.4466C146.155 24.7323 146.713 25.0916 147.07 25.5246C147.427 25.9576 147.677 26.5044 147.82 27.1651C147.901 27.5758 147.941 28.3167 147.941 29.3881L147.941 32.602C147.941 34.8428 147.992 36.2601 148.095 36.8538C148.197 37.4474 148.4 38.0166 148.704 38.5612L146.186 38.5612C145.936 38.0612 145.776 37.4765 145.704 36.8069ZM145.503 31.4235C144.629 31.7807 143.316 32.0842 141.566 32.3342C140.575 32.477 139.875 32.6377 139.464 32.8163C139.053 32.9948 138.736 33.2559 138.513 33.5997C138.29 33.9434 138.178 34.325 138.178 34.7446C138.178 35.3874 138.422 35.9231 138.908 36.3516C139.395 36.7801 140.107 36.9944 141.044 36.9944C141.973 36.9944 142.798 36.7913 143.522 36.3851C144.245 35.9789 144.776 35.4231 145.115 34.7178C145.374 34.1732 145.503 33.3698 145.503 32.3074L145.503 31.4235Z"/>
<path clip-path="url(#TextBounds_2)" d="M160.293 38.5612L160.293 36.7667C159.391 38.1773 158.066 38.8826 156.316 38.8826C155.182 38.8826 154.14 38.5701 153.189 37.9452C152.238 37.3202 151.502 36.4476 150.979 35.3271C150.457 34.2067 150.196 32.9189 150.196 31.4637C150.196 30.0442 150.433 28.7564 150.906 27.6003C151.379 26.4442 152.089 25.5581 153.035 24.9421C153.981 24.3261 155.039 24.0181 156.209 24.0181C157.066 24.0181 157.829 24.1989 158.499 24.5605C159.168 24.922 159.713 25.393 160.132 25.9732L160.132 18.9294L162.529 18.9294L162.529 38.5612L160.293 38.5612ZM152.673 31.4637C152.673 33.285 153.057 34.6464 153.825 35.5481C154.593 36.4498 155.499 36.9006 156.543 36.9006C157.597 36.9006 158.492 36.4699 159.228 35.6084C159.965 34.7468 160.333 33.4323 160.333 31.6646C160.333 29.7184 159.958 28.29 159.208 27.3793C158.458 26.4687 157.534 26.0134 156.436 26.0134C155.365 26.0134 154.47 26.4509 153.751 27.3258C153.033 28.2007 152.673 29.58 152.673 31.4637Z"/>
<path clip-path="url(#TextBounds_2)" d="M173.08 38.5612L173.08 18.9294L187.274 18.9294L187.274 21.2461L175.677 21.2461L175.677 27.2588L186.538 27.2588L186.538 29.5621L175.677 29.5621L175.677 36.2445L187.73 36.2445L187.73 38.5612L173.08 38.5612Z"/>
<path clip-path="url(#TextBounds_2)" d="M188.793 38.5612L193.989 31.1691L189.182 24.3395L192.195 24.3395L194.377 27.674C194.788 28.3078 195.118 28.839 195.368 29.2675C195.761 28.6783 196.123 28.156 196.453 27.7007L198.85 24.3395L201.729 24.3395L196.815 31.0352L202.104 38.5612L199.145 38.5612L196.225 34.142L195.449 32.9502L191.713 38.5612L188.793 38.5612Z"/>
<path clip-path="url(#TextBounds_2)" d="M208.765 36.4051L209.114 38.5344C208.435 38.6772 207.828 38.7486 207.292 38.7486C206.417 38.7486 205.739 38.6103 205.257 38.3335C204.775 38.0568 204.435 37.693 204.239 37.2421C204.043 36.7913 203.944 35.8427 203.944 34.3964L203.944 26.2143L202.177 26.2143L202.177 24.3395L203.944 24.3395L203.944 20.8176L206.341 19.3713L206.341 24.3395L208.765 24.3395L208.765 26.2143L206.341 26.2143L206.341 34.5304C206.341 35.2178 206.384 35.6597 206.469 35.8561C206.554 36.0525 206.692 36.2087 206.884 36.3248C207.076 36.4409 207.35 36.4989 207.707 36.4989C207.975 36.4989 208.328 36.4676 208.765 36.4051Z"/>
<path clip-path="url(#TextBounds_2)" d="M220.247 33.9813L222.738 34.2893C222.345 35.7445 221.618 36.8738 220.555 37.6773C219.493 38.4808 218.136 38.8826 216.484 38.8826C214.404 38.8826 212.755 38.242 211.536 36.9609C210.318 35.6798 209.708 33.8831 209.708 31.5709C209.708 29.1783 210.324 27.3213 211.556 26C212.788 24.6787 214.386 24.0181 216.35 24.0181C218.252 24.0181 219.805 24.6654 221.011 25.9599C222.216 27.2544 222.818 29.0756 222.818 31.4235C222.818 31.5664 222.814 31.7807 222.805 32.0663L212.199 32.0663C212.288 33.6287 212.73 34.825 213.525 35.6552C214.319 36.4855 215.31 36.9006 216.498 36.9006C217.382 36.9006 218.136 36.6685 218.761 36.2043C219.386 35.74 219.881 34.9991 220.247 33.9813ZM212.333 30.0844L220.274 30.0844C220.167 28.8881 219.863 27.9909 219.363 27.3927C218.596 26.4643 217.6 26 216.377 26C215.27 26 214.339 26.3705 213.585 27.1115C212.831 27.8525 212.413 28.8435 212.333 30.0844Z"/>
<path clip-path="url(#TextBounds_2)" d="M225.154 38.5612L225.154 24.3395L227.323 24.3395L227.323 26.3616C228.368 24.7993 229.877 24.0181 231.85 24.0181C232.707 24.0181 233.495 24.1721 234.213 24.4801C234.932 24.7881 235.47 25.1921 235.827 25.692C236.184 26.192 236.434 26.7857 236.577 27.4731C236.666 27.9195 236.711 28.7006 236.711 29.8166L236.711 38.5612L234.3 38.5612L234.3 29.9103C234.3 28.9283 234.207 28.194 234.019 27.7074C233.832 27.2209 233.499 26.8325 233.022 26.5424C232.544 26.2522 231.984 26.1072 231.341 26.1072C230.314 26.1072 229.428 26.433 228.683 27.0847C227.937 27.7364 227.565 28.9729 227.565 30.7942L227.565 38.5612L225.154 38.5612Z"/>
<path clip-path="url(#TextBounds_2)" d="M238.832 34.3161L241.216 33.9411C241.35 34.8964 241.723 35.6284 242.334 36.1373C242.946 36.6462 243.8 36.9006 244.899 36.9006C246.006 36.9006 246.827 36.6752 247.363 36.2244C247.898 35.7735 248.166 35.2446 248.166 34.6375C248.166 34.0929 247.929 33.6644 247.456 33.3519C247.126 33.1376 246.305 32.8654 244.992 32.535C243.225 32.0887 241.999 31.7025 241.316 31.3767C240.633 31.0508 240.116 30.6 239.763 30.0241C239.41 29.4483 239.234 28.8122 239.234 28.1159C239.234 27.482 239.379 26.895 239.669 26.3549C239.959 25.8148 240.354 25.3662 240.854 25.0091C241.229 24.7323 241.74 24.498 242.388 24.306C243.035 24.1141 243.729 24.0181 244.47 24.0181C245.586 24.0181 246.566 24.1788 247.409 24.5002C248.253 24.8216 248.876 25.2568 249.278 25.8059C249.679 26.3549 249.956 27.0892 250.108 28.0087L247.751 28.3301C247.644 27.5981 247.334 27.0267 246.82 26.616C246.307 26.2054 245.582 26 244.644 26C243.537 26 242.747 26.183 242.274 26.5491C241.801 26.9151 241.564 27.3436 241.564 27.8347C241.564 28.1471 241.662 28.4283 241.859 28.6783C242.055 28.9372 242.363 29.1515 242.783 29.3211C243.024 29.4104 243.733 29.6157 244.912 29.9371C246.617 30.3924 247.807 30.7651 248.481 31.0553C249.155 31.3454 249.684 31.7673 250.068 32.3208C250.452 32.8743 250.643 33.5617 250.643 34.383C250.643 35.1865 250.409 35.9431 249.94 36.6529C249.472 37.3626 248.795 37.9117 247.912 38.3C247.028 38.6884 246.028 38.8826 244.912 38.8826C243.064 38.8826 241.656 38.4987 240.687 37.7309C239.718 36.9631 239.1 35.8249 238.832 34.3161Z"/>
<path clip-path="url(#TextBounds_2)" d="M252.912 21.7014L252.912 18.9294L255.323 18.9294L255.323 21.7014L252.912 21.7014ZM252.912 38.5612L252.912 24.3395L255.323 24.3395L255.323 38.5612L252.912 38.5612Z"/>
<path clip-path="url(#TextBounds_2)" d="M257.484 31.4503C257.484 28.8167 258.216 26.866 259.68 25.5983C260.903 24.5448 262.394 24.0181 264.153 24.0181C266.108 24.0181 267.706 24.6587 268.947 25.9398C270.188 27.2209 270.809 28.9908 270.809 31.2495C270.809 33.0796 270.534 34.5192 269.985 35.5682C269.436 36.6172 268.637 37.4318 267.588 38.0121C266.539 38.5924 265.394 38.8826 264.153 38.8826C262.162 38.8826 260.553 38.2442 259.325 36.9676C258.098 35.6909 257.484 33.8519 257.484 31.4503ZM259.962 31.4503C259.962 33.2716 260.359 34.6353 261.153 35.5414C261.948 36.4476 262.948 36.9006 264.153 36.9006C265.349 36.9006 266.345 36.4453 267.139 35.5347C267.934 34.6241 268.331 33.2359 268.331 31.37C268.331 29.6112 267.932 28.2788 267.133 27.3726C266.334 26.4665 265.34 26.0134 264.153 26.0134C262.948 26.0134 261.948 26.4643 261.153 27.366C260.359 28.2676 259.962 29.6291 259.962 31.4503Z"/>
<path clip-path="url(#TextBounds_2)" d="M273.024 38.5612L273.024 24.3395L275.193 24.3395L275.193 26.3616C276.238 24.7993 277.746 24.0181 279.719 24.0181C280.576 24.0181 281.364 24.1721 282.083 24.4801C282.802 24.7881 283.34 25.1921 283.697 25.692C284.054 26.192 284.304 26.7857 284.447 27.4731C284.536 27.9195 284.58 28.7006 284.58 29.8166L284.58 38.5612L282.17 38.5612L282.17 29.9103C282.17 28.9283 282.076 28.194 281.889 27.7074C281.701 27.2209 281.369 26.8325 280.891 26.5424C280.414 26.2522 279.853 26.1072 279.211 26.1072C278.184 26.1072 277.298 26.433 276.552 27.0847C275.807 27.7364 275.434 28.9729 275.434 30.7942L275.434 38.5612L273.024 38.5612Z"/>
</g>
<path d="M8.00214 2.05056L289.207 2.05056C292.793 2.05056 295.7 5.26446 295.7 9.22901L295.7 47.2223C295.7 51.1869 292.793 54.4008 289.207 54.4008L8.00214 54.4008C4.41612 54.4008 1.50908 51.1869 1.50908 47.2223L1.50908 9.22901C1.50908 5.26446 4.41612 2.05056 8.00214 2.05056Z" fill="none" opacity="1" stroke="#ee4d00" stroke-linecap="butt" stroke-linejoin="round" stroke-width="1.99352"/>
<g opacity="1">
<path d="M34.9867 38.0669L16.9867 38.0669C15.8817 38.0669 14.9867 37.1719 14.9867 36.0669L14.9867 34.0669L36.9867 34.0669L36.9867 36.0669C36.9867 37.1719 36.0917 38.0669 34.9867 38.0669ZM25.9867 15.0669C24.8822 15.0669 23.9867 15.9623 23.9867 17.0669C23.9867 18.1714 24.8822 19.0669 25.9867 19.0669C27.0913 19.0669 27.9867 18.1714 27.9867 17.0669C27.9867 15.9623 27.0913 15.0669 25.9867 15.0669ZM37.9867 20.0669C36.8822 20.0669 35.9867 20.9623 35.9867 22.0669C35.9867 23.1714 36.8822 24.0669 37.9867 24.0669C39.0913 24.0669 39.9867 23.1714 39.9867 22.0669C39.9867 20.9623 39.0913 20.0669 37.9867 20.0669ZM13.9867 20.0669C12.8822 20.0669 11.9867 20.9623 11.9867 22.0669C11.9867 23.1714 12.8822 24.0669 13.9867 24.0669C15.0913 24.0669 15.9867 23.1714 15.9867 22.0669C15.9867 20.9623 15.0913 20.0669 13.9867 20.0669Z" fill="#ee4d00" fill-rule="nonzero" opacity="1" stroke="none"/>
<path d="M33.9867 32.0669L17.9867 32.0669L25.9867 17.0669L33.9867 32.0669Z" fill="#ee4d00" fill-rule="nonzero" opacity="1" stroke="none"/>
<path d="M36.9867 32.0669L20.9867 32.0669L37.9867 22.0669L36.9867 32.0669Z" fill="#ee4d00" fill-rule="nonzero" opacity="1" stroke="none"/>
<path d="M14.9867 32.0669L30.9867 32.0669L13.9867 22.0669L14.9867 32.0669Z" fill="#ee4d00" fill-rule="nonzero" opacity="1" stroke="none"/>
</g>
</g>
</g>
</svg>
